<svg xmlns="http://www.w3.org/2000/svg" xmlns:xlink="http://www.w3.org/1999/xlink" width="98.626" height="54.872" viewBox="0 0 98.626 54.872">
  <defs>
    <clipPath id="clip-path">
      <rect id="사각형_1054" data-name="사각형 1054" width="98.626" height="54.872" transform="translate(0 0)" fill="none"/>
    </clipPath>
  </defs>
  <g id="그룹_1401" data-name="그룹 1401" transform="translate(0 0)">
    <g id="그룹_1400" data-name="그룹 1400" clip-path="url(#clip-path)">
      <path id="패스_9331" data-name="패스 9331" d="M3.883,14.489V12.473H6.854v2.016h3.968V16.4H8.742a7.236,7.236,0,0,1,1.549,4.562c-.021,3.586-2.037,6.259-4.922,6.259C2.4,27.241.425,24.547.425,20.961A7.11,7.11,0,0,1,1.952,16.4H0v-1.91Zm1.486,1.952c-1.168,0-2.1,1.782-2.08,4.52-.021,2.61.891,4.349,2.058,4.349,1.189,0,2.08-1.7,2.08-4.349,0-2.865-.849-4.52-2.058-4.52M15.6,20.218V31.676H12.732v-19.2H15.6v5.835h2.758v1.91Z" fill="#4d4d4d"/>
      <path id="패스_9332" data-name="패스 9332" d="M23.427,24.249h4.816a6.574,6.574,0,0,0,3.48-.573v-11.2h2.864v5.835h2.758v1.909H34.587V31.676H31.723v-6.09a9.158,9.158,0,0,1-3.544.573H21.835a2.445,2.445,0,0,1-2.207-2.631V13.321h2.865V23.464c0,.488.318.785.934.785" fill="#4d4d4d"/>
      <path id="패스_9333" data-name="패스 9333" d="M46.62,16.325c2.106,0,3.892,2.178,3.892,5.6,0,3.39-1.721,5.621-3.892,5.621-2.268,0-3.909-2.284-3.909-5.621,0-3.373,1.721-5.6,3.909-5.6m0,1.607c-.9,0-1.737,1.356-1.737,4,0,2.516.836,4.015,1.72,4.015.933,0,1.737-1.428,1.737-4.015,0-2.659-.788-4-1.72-4m7.832,4.443v9.637H52.281V15.862h2.171v4.907h2.091v1.606Z" fill="#4d4d4d"/>
      <path id="패스_9334" data-name="패스 9334" d="M60.8,16.326c2.107,0,3.892,2.177,3.892,5.6,0,3.391-1.72,5.621-3.892,5.621-2.268,0-3.908-2.284-3.908-5.621,0-3.373,1.721-5.6,3.908-5.6m0,1.606c-.9,0-1.737,1.356-1.737,4,0,2.517.837,4.015,1.721,4.015.933,0,1.737-1.427,1.737-4.015,0-2.659-.788-4-1.721-4m7.994,14.08H66.62V15.862h2.171Z" fill="#4d4d4d"/>
      <path id="패스_9335" data-name="패스 9335" d="M78.407,18.9H75.93c.129,2.338,1.158,4.015,2.8,4.408V24.91a4.7,4.7,0,0,1-3.973-2.659,5,5,0,0,1-3.908,2.659V23.3c1.608-.393,2.654-2.07,2.8-4.408H71.089V17.29h2.574V15.684h2.251V17.29h2.493Zm4.021,13.3H80.257v-4.64H72.939V25.945h9.489Zm0-11.243v4.283H80.257V15.862h2.171v3.48h2.091v1.606Z" fill="#4d4d4d"/>
      <path id="패스_9336" data-name="패스 9336" d="M87.657,17.29V15.612h2.252V17.29h3.007V18.9H91.453a4.36,4.36,0,0,1,.9,2.73c0,2.659-1.833,4.23-3.57,4.23-1.834,0-3.6-1.571-3.587-4.23a4.323,4.323,0,0,1,.9-2.73H84.714V17.29Zm2.2,13.116h6.674v1.606H88.59c-.885,0-1.544-1-1.544-2.141V26.659h2.171v3.033a.643.643,0,0,0,.644.714M88.783,18.932c-.869,0-1.415,1.142-1.415,2.694,0,1.446.514,2.624,1.4,2.624.852,0,1.415-1.214,1.415-2.624,0-1.57-.6-2.694-1.4-2.694m7.752,2.73v6.246H94.364V15.862h2.171v4.194h2.091v1.606Z" fill="#4d4d4d"/>
      <path id="패스_9337" data-name="패스 9337" d="M30.232,45.322a10.856,10.856,0,0,0,.349-3.055V40.951h-7.9V39.433H32.826v2.784a10.779,10.779,0,0,1-.416,3.1h2.062V46.84H21V45.322Zm2.577,3.02v6.193H24.2c-.831,0-1.529-.945-1.529-2.092v-4.1Zm-7.9,1.519v2.548c0,.439.266.608.648.608h5.005V49.861Z" fill="#4d4d4d"/>
      <path id="패스_9338" data-name="패스 9338" d="M43.214,38.672a4.122,4.122,0,0,1,4.156,4.05,3.994,3.994,0,0,1-.881,2.531h3.442v1.519H47.154V49.81h-.033a3.528,3.528,0,0,1,.266,1.332,3.967,3.967,0,0,1-4.19,3.73c-2.244,0-4.206-1.451-4.206-3.73a3.509,3.509,0,0,1,.266-1.332H39.24V46.772H36.463V45.253h3.475a3.994,3.994,0,0,1-.881-2.531,4.133,4.133,0,0,1,4.157-4.05M43.2,48.9a2.082,2.082,0,0,0-1.962,2.244,1.968,1.968,0,1,0,3.907,0A2.124,2.124,0,0,0,43.2,48.9m.017-8.707c-1.114,0-1.929,1.215-1.912,2.531-.017,1.316.815,2.531,1.912,2.531,1.064,0,1.9-1.181,1.912-2.531-.017-1.282-.881-2.531-1.912-2.531m1.679,6.581H41.5V47.7a4.751,4.751,0,0,1,1.7-.32,4.481,4.481,0,0,1,1.7.337Z" fill="#4d4d4d"/>
      <path id="패스_9339" data-name="패스 9339" d="M60.833,50.654a11.178,11.178,0,0,0,.665-4.421V41.457H53.6V39.939H63.743v6.277a10.96,10.96,0,0,1-.749,4.438h2.394v1.519H51.921V50.654h2.943V44.917h2.178v5.737h1.231V44.917h2.178v5.737Z" fill="#4d4d4d"/>
      <path id="패스_9340" data-name="패스 9340" d="M74.13,38.757A4.055,4.055,0,0,1,78.2,42.925a4.325,4.325,0,0,1-1.1,2.9h3.741v1.519H77.9v1.536h1.28v5.653H76.94V50.4h-7.9V48.882h1.28V47.346H67.38V45.827h3.757a4.3,4.3,0,0,1-1.114-2.9,4.082,4.082,0,0,1,4.107-4.168m0,1.519c-1.08,0-1.862,1.232-1.862,2.649,0,1.552.8,2.666,1.846,2.666s1.845-1.181,1.845-2.666c0-1.451-.765-2.649-1.829-2.649m1.513,7.07H72.584v1.536h3.059Z" fill="#4d4d4d"/>
      <path id="패스_9341" data-name="패스 9341" d="M15.312,35.241l1.493-.748a.592.592,0,0,1,.847.64l-.314,1.64a.592.592,0,0,0,.16.528l1.173,1.188a.592.592,0,0,1-.347,1l-1.657.209a.589.589,0,0,0-.452.315L15.447,41.5a.592.592,0,0,1-1.062-.02l-.71-1.512a.591.591,0,0,0-.439-.332l-1.648-.272a.592.592,0,0,1-.309-1.016L12.5,37.2a.59.59,0,0,0,.181-.52l-.251-1.651a.592.592,0,0,1,.871-.608l1.463.805a.593.593,0,0,0,.551.011" fill="#419496"/>
      <path id="패스_9342" data-name="패스 9342" d="M23.37,2.749l1.539.814a.617.617,0,0,1-.031,1.106L23.3,5.4a.618.618,0,0,0-.351.455l-.3,1.715a.617.617,0,0,1-1.062.312L20.405,6.6a.621.621,0,0,0-.541-.193l-1.723.246a.617.617,0,0,1-.626-.913l.853-1.517a.616.616,0,0,0,.016-.575l-.766-1.563a.617.617,0,0,1,.675-.877L20,1.549a.616.616,0,0,0,.551-.163L21.8.175a.617.617,0,0,1,1.043.371l.2,1.729a.617.617,0,0,0,.325.474" fill="#fdec57"/>
      <path id="패스_9343" data-name="패스 9343" d="M71.28,7.553l1.343-.016a.477.477,0,0,1,.388.762l-.805,1.077a.48.48,0,0,0-.07.438l.43,1.274a.476.476,0,0,1-.6.6l-1.274-.433a.474.474,0,0,0-.438.069l-1.077.8a.478.478,0,0,1-.763-.389l.019-1.344a.48.48,0,0,0-.2-.4l-1.1-.777a.477.477,0,0,1,.134-.845l1.284-.4a.482.482,0,0,0,.315-.314l.4-1.283a.477.477,0,0,1,.845-.133l.775,1.1a.478.478,0,0,0,.4.2" fill="#d82f4a"/>
    </g>
  </g>
</svg>
